<svg class="icon" viewBox="0 0 1024 1024" xmlns="http://www.w3.org/2000/svg" width="100%" height="100%"><path d="M170.667 957.867a341.333 32 0 1 0 682.666 0 341.333 32 0 1 0-682.666 0z" fill="#45413C"/><path d="M85.33300000000003 471.467a426.667 426.667 0 1 0 853.334 0 426.667 426.667 0 1 0-853.334 0z" fill="#FFE500"/><path d="M512 34.133c-234.667 0-426.667 192-426.667 426.667s192 426.667 426.667 426.667 426.667-192 426.667-426.667S746.667 34.133 512 34.133zm0 789.334c-215.467 0-388.267-174.934-388.267-390.4C121.6 219.733 296.533 44.8 512 44.8s388.267 174.933 388.267 388.267c0 215.466-172.8 390.4-388.267 390.4z" fill="#EBCB00"/><path d="M384 119.467a128 32 0 1 0 256 0 128 32 0 1 0-256 0z" fill="#FFF48C"/><path d="M714.667 567.467a53.333 32 0 1 0 106.666 0 53.333 32 0 1 0-106.666 0zM202.667 567.467a53.333 32 0 1 0 106.666 0 53.333 32 0 1 0-106.666 0z" fill="#FFAA54"/><path d="M266.66700000000003 439.467a21.333 21.333 0 1 0 42.666 0 21.333 21.333 0 1 0-42.666 0zM714.667 439.467a21.333 21.333 0 1 0 42.666 0 21.333 21.333 0 1 0-42.666 0z" fill="#45413C"/><path d="M642.133 748.8c6.4 0 10.667-2.133 14.934-6.4 4.266-4.267 4.266-10.667 4.266-17.067C650.667 665.6 586.667 631.467 512 631.467s-136.533 32-149.333 93.866c-2.134 6.4 0 12.8 4.266 17.067 4.267 4.267 8.534 6.4 14.934 6.4 87.466-23.467 172.8-23.467 260.266 0z" fill="#FF866E"/><path d="M646.4 748.8l-36.267 145.067c-4.266 21.333-2.133 44.8 8.534 61.866 14.933 23.467 38.4 23.467 53.333 0 10.667-17.066 14.933-40.533 8.533-61.866L646.4 748.8z" fill="#E5FEFF"/></svg>