<svg width="824" height="824" viewBox="0 0 824 824" fill="none" xmlns="http://www.w3.org/2000/svg">
<rect width="824" height="824" rx="126" fill="url(#paint0_linear_214_9)"/>
<path d="M398.539 285.393C443.234 242.434 488.868 222.481 513.268 213.208C463.998 186.799 376.367 172.362 295.071 221.659C286.977 303.351 303.869 359.69 319.706 407.578C325.689 385.043 353.844 328.351 398.539 285.393Z" fill="url(#paint1_linear_214_9)"/>
<path d="M226.797 286.449C248.757 252.927 281.463 229.288 295.071 221.659C286.977 303.351 303.869 359.69 319.706 407.578C340.434 470.256 371.005 514.623 399.243 545.609C410.152 557.581 415.783 563.215 424.23 570.727C427.447 573.268 430.732 575.711 434.084 578.048C459.422 595.713 488.624 607.334 522.066 610.047C337.303 709.697 135.295 535.398 198.994 341.732C204.907 320.886 219.993 296.191 226.797 286.449Z" fill="url(#paint2_linear_214_9)"/>
<path d="M594.212 545.961C578.023 567.793 554.796 591.737 522.066 610.047C488.624 607.334 459.422 595.713 434.084 578.048C430.732 575.711 427.447 573.268 424.23 570.727C415.783 563.215 410.152 557.581 399.243 545.609C432.676 491.735 468.221 462.157 496.023 430.466C531.681 387.492 543.819 347.994 550.573 294.9C553.036 275.533 553.036 251.941 534.384 225.532C632.22 283.984 675.86 431.522 594.212 545.961Z" fill="url(#paint3_linear_214_9)"/>
<path d="M474.765 171.806L439.148 82.0122L498.792 71.6051L493.314 168.705L474.765 171.806ZM657.555 108.122L561.02 195.663L547.681 185.997L611.66 72.5011L657.555 108.122ZM595.356 253.652L589.182 234.293L686.458 191.019L699.221 237.975L595.356 253.652Z" stroke="black" stroke-width="6"/>
<defs>
<linearGradient id="paint0_linear_214_9" x1="760" y1="771.5" x2="1.18137e-05" y2="-50" gradientUnits="userSpaceOnUse">
<stop stop-color="#F6F3F3"/>
<stop offset="1" stop-color="white"/>
</linearGradient>
<linearGradient id="paint1_linear_214_9" x1="504.47" y1="213.912" x2="297.152" y2="296.936" gradientUnits="userSpaceOnUse">
<stop stop-color="#89F7FE"/>
<stop offset="0.494792" stop-color="#66A6FF"/>
<stop offset="1" stop-color="#2F80ED"/>
</linearGradient>
<linearGradient id="paint2_linear_214_9" x1="240.804" y1="270.374" x2="511.605" y2="610.986" gradientUnits="userSpaceOnUse">
<stop stop-color="#56CCF2"/>
<stop offset="1" stop-color="#2F80ED"/>
</linearGradient>
<linearGradient id="paint3_linear_214_9" x1="535.172" y1="226.352" x2="566.743" y2="574.524" gradientUnits="userSpaceOnUse">
<stop stop-color="#FFF1EB"/>
<stop offset="1" stop-color="#2F80ED"/>
</linearGradient>
</defs>
</svg>
